<mxfile host="65bd71144e">
    <diagram id="R602d75rELM8j5CyLYhq" name="PÃ¡gina-1">
        <mxGraphModel dx="1175" dy="382" grid="1" gridSize="10" guides="1" tooltips="1" connect="1" arrows="1" fold="1" page="1" pageScale="1" pageWidth="827" pageHeight="1169" math="0" shadow="0">
            <root>
                <mxCell id="0"/>
                <mxCell id="1" parent="0"/>
                <mxCell id="19" value="" style="edgeStyle=none;html=1;" edge="1" parent="1" source="2" target="3">
                    <mxGeometry relative="1" as="geometry"/>
                </mxCell>
                <mxCell id="2" value="inicio" style="ellipse;whiteSpace=wrap;html=1;fillColor=#1A1A1A;" vertex="1" parent="1">
                    <mxGeometry x="330" y="40" width="120" height="80" as="geometry"/>
                </mxCell>
                <mxCell id="20" value="" style="edgeStyle=none;html=1;" edge="1" parent="1" source="3" target="4">
                    <mxGeometry relative="1" as="geometry"/>
                </mxCell>
                <mxCell id="3" value="x" style="shape=parallelogram;perimeter=parallelogramPerimeter;whiteSpace=wrap;html=1;fixedSize=1;fillColor=#00331A;" vertex="1" parent="1">
                    <mxGeometry x="330" y="150" width="120" height="60" as="geometry"/>
                </mxCell>
                <mxCell id="21" value="" style="edgeStyle=none;html=1;" edge="1" parent="1" source="4" target="5">
                    <mxGeometry relative="1" as="geometry"/>
                </mxCell>
                <mxCell id="4" value="genera un numero aleatorio" style="rounded=0;whiteSpace=wrap;html=1;fillColor=#CC6600;" vertex="1" parent="1">
                    <mxGeometry x="330" y="250" width="120" height="60" as="geometry"/>
                </mxCell>
                <mxCell id="12" style="edgeStyle=none;html=1;entryX=0.5;entryY=0;entryDx=0;entryDy=0;" edge="1" parent="1" source="5" target="7">
                    <mxGeometry relative="1" as="geometry">
                        <Array as="points">
                            <mxPoint x="260" y="390"/>
                        </Array>
                    </mxGeometry>
                </mxCell>
                <mxCell id="13" style="edgeStyle=none;html=1;entryX=0.5;entryY=0;entryDx=0;entryDy=0;" edge="1" parent="1" source="5" target="6">
                    <mxGeometry relative="1" as="geometry">
                        <Array as="points">
                            <mxPoint x="540" y="390"/>
                        </Array>
                    </mxGeometry>
                </mxCell>
                <mxCell id="5" value="x==numero generado" style="rhombus;whiteSpace=wrap;html=1;fillColor=#660033;" vertex="1" parent="1">
                    <mxGeometry x="350" y="350" width="80" height="80" as="geometry"/>
                </mxCell>
                <mxCell id="6" value="acerto el numero" style="shape=document;whiteSpace=wrap;html=1;boundedLbl=1;fillColor=#9999FF;" vertex="1" parent="1">
                    <mxGeometry x="480" y="440" width="120" height="80" as="geometry"/>
                </mxCell>
                <mxCell id="10" style="edgeStyle=none;html=1;entryX=0.5;entryY=0;entryDx=0;entryDy=0;" edge="1" parent="1" source="7" target="9">
                    <mxGeometry relative="1" as="geometry">
                        <Array as="points">
                            <mxPoint x="140" y="480"/>
                        </Array>
                    </mxGeometry>
                </mxCell>
                <mxCell id="11" style="edgeStyle=none;html=1;entryX=0.5;entryY=0;entryDx=0;entryDy=0;" edge="1" parent="1" source="7" target="8">
                    <mxGeometry relative="1" as="geometry">
                        <Array as="points">
                            <mxPoint x="380" y="480"/>
                        </Array>
                    </mxGeometry>
                </mxCell>
                <mxCell id="7" value="x&amp;lt;numero generado" style="rhombus;whiteSpace=wrap;html=1;fillColor=#660033;" vertex="1" parent="1">
                    <mxGeometry x="220" y="440" width="80" height="80" as="geometry"/>
                </mxCell>
                <mxCell id="8" value="el numero es mayor" style="shape=document;whiteSpace=wrap;html=1;boundedLbl=1;fillColor=#9999FF;" vertex="1" parent="1">
                    <mxGeometry x="320" y="560" width="120" height="80" as="geometry"/>
                </mxCell>
                <mxCell id="9" value="el numero es menor" style="shape=document;whiteSpace=wrap;html=1;boundedLbl=1;fillColor=#9999FF;" vertex="1" parent="1">
                    <mxGeometry x="80" y="560" width="120" height="80" as="geometry"/>
                </mxCell>
                <mxCell id="14" value="final" style="ellipse;whiteSpace=wrap;html=1;fillColor=#1A1A1A;" vertex="1" parent="1">
                    <mxGeometry x="380" y="800" width="120" height="80" as="geometry"/>
                </mxCell>
                <mxCell id="15" value="" style="endArrow=none;html=1;exitX=0.505;exitY=0.868;exitDx=0;exitDy=0;exitPerimeter=0;" edge="1" parent="1" source="9">
                    <mxGeometry width="50" height="50" relative="1" as="geometry">
                        <mxPoint x="390" y="710" as="sourcePoint"/>
                        <mxPoint x="540" y="760" as="targetPoint"/>
                        <Array as="points">
                            <mxPoint x="141" y="760"/>
                        </Array>
                    </mxGeometry>
                </mxCell>
                <mxCell id="16" value="" style="endArrow=none;html=1;exitX=0.482;exitY=0.928;exitDx=0;exitDy=0;exitPerimeter=0;" edge="1" parent="1" source="6">
                    <mxGeometry width="50" height="50" relative="1" as="geometry">
                        <mxPoint x="390" y="710" as="sourcePoint"/>
                        <mxPoint x="540" y="760" as="targetPoint"/>
                    </mxGeometry>
                </mxCell>
                <mxCell id="17" value="" style="endArrow=none;html=1;entryX=0.525;entryY=0.883;entryDx=0;entryDy=0;entryPerimeter=0;" edge="1" parent="1" target="8">
                    <mxGeometry width="50" height="50" relative="1" as="geometry">
                        <mxPoint x="383" y="760" as="sourcePoint"/>
                        <mxPoint x="440" y="660" as="targetPoint"/>
                    </mxGeometry>
                </mxCell>
                <mxCell id="18" value="" style="endArrow=none;html=1;entryX=0.5;entryY=0;entryDx=0;entryDy=0;" edge="1" parent="1" target="14">
                    <mxGeometry width="50" height="50" relative="1" as="geometry">
                        <mxPoint x="440" y="760" as="sourcePoint"/>
                        <mxPoint x="440" y="660" as="targetPoint"/>
                    </mxGeometry>
                </mxCell>
            </root>
        </mxGraphModel>
    </diagram>
</mxfile>